<svg xmlns="http://www.w3.org/2000/svg" xmlns:xlink="http://www.w3.org/1999/xlink" id="terminal" baseProfile="full" viewBox="0 0 687 1101" width="687" version="1.1">
    <defs>
        <termtosvg:template_settings xmlns:termtosvg="https://github.com/nbedos/termtosvg">
            <termtosvg:screen_geometry columns="80" rows="60"/>
            <termtosvg:animation type="css"/>
        </termtosvg:template_settings>
        <style type="text/css" id="generated-style"><![CDATA[#screen {
                font-family: 'DejaVu Sans Mono', monospace;
                font-style: normal;
                font-size: 14px;
            }

        text {
            dominant-baseline: text-before-edge;
            white-space: pre;
        }
    
            :root {
                --animation-duration: 13082ms;
            }

            @keyframes roll {
                0.000%{transform:translateY(0px)}
0.076%{transform:translateY(-1054px)}
0.115%{transform:translateY(-2108px)}
0.130%{transform:translateY(-3162px)}
0.161%{transform:translateY(-4216px)}
0.183%{transform:translateY(-5270px)}
0.206%{transform:translateY(-6324px)}
0.229%{transform:translateY(-7378px)}
0.252%{transform:translateY(-8432px)}
0.283%{transform:translateY(-9486px)}
0.306%{transform:translateY(-10540px)}
0.329%{transform:translateY(-11594px)}
0.359%{transform:translateY(-12648px)}
0.397%{transform:translateY(-13702px)}
0.451%{transform:translateY(-14756px)}
0.505%{transform:translateY(-15810px)}
0.558%{transform:translateY(-16864px)}
0.612%{transform:translateY(-17918px)}
0.642%{transform:translateY(-18972px)}
8.271%{transform:translateY(-20026px)}
15.915%{transform:translateY(-21080px)}
23.559%{transform:translateY(-22134px)}
100.000%{transform:translateY(-22134px)}
            }

            #screen_view {
                animation-duration: 13082ms;
                animation-iteration-count:infinite;
                animation-name:roll;
                animation-timing-function: steps(1,end);
                animation-fill-mode: forwards;
            }
        ]]></style>
        <style type="text/css" id="user-style">
            /* The colors defined below are the default 16 colors used for rendering text of the terminal. Adjust
               them as needed.
               PowerShell colors based on https://en.wikipedia.org/wiki/ANSI_escape_code#Colors */
            .foreground {fill: #cccccc;}
            .background {fill: #0c0c0c;}
            .color0 {fill: #0c0c0c;}
            .color1 {fill: #c50f1f;}
            .color2 {fill: #13a10e;}
            .color3 {fill: #c19c00;}
            .color4 {fill: #0037da;}
            .color5 {fill: #881798;}
            .color6 {fill: #3a96dd;}
            .color7 {fill: #cccccc;}
            .color8 {fill: #767676;}
            .color9 {fill: #e74856;}
            .color10 {fill: #16c60c;}
            .color11 {fill: #f9f1a5;}
            .color12 {fill: #3b78ff;}
            .color13 {fill: #b4009e;}
            .color14 {fill: #61d6d6;}
            .color15 {fill: #f2f2f2;}
        </style>
    </defs>
    <rect id="terminalui" class="background" width="100%" height="100%" ry="4.5826941"/>
    <circle cx="24" cy="23" r="7" class="color1"/>
    <circle cx="44" cy="23" r="7" class="color3"/>
    <circle cx="64" cy="23" r="7" class="color2"/>
    <svg id="screen" width="640" height="1020" x="23" y="50" viewBox="0 0 640 1020" preserveAspectRatio="xMidYMin slice"><rect class="background" height="100%" width="100%" x="0" y="0"/><defs><g id="g1"><text x="0" textLength="96" class="foreground">&#128994; var r = 0</text></g><g id="g2"><text x="0" textLength="216" class="foreground">&#128994; proc adder(x: var int) =</text></g><g id="g3"><text x="0" textLength="80" class="foreground">&#128994;   inc x</text></g><g id="g4"><text x="0" textLength="24" class="foreground">&#128994; </text></g><g id="g5"><text x="0" textLength="104" class="foreground">&#128994; trampoline</text></g><g id="g6"><text x="0" textLength="112" class="foreground">&#128994; yield magic</text></g><g id="g7"><text x="0" textLength="104" class="foreground">&#128994; noop magic</text></g><g id="g8"><text x="0" textLength="112" class="foreground">&#128994; sleep magic</text></g><g id="g9"><text x="0" textLength="584" class="foreground">&#128994; &#9898; shadowing and proc param defaults: broken until scopes are improved</text></g><g id="g10"><text x="0" textLength="272" class="foreground">&#128994; reassignment of var proc params</text></g><g id="g11"><text x="0" textLength="256" class="foreground">&#128994; multiple variable declaration</text></g><g id="g12"><text x="0" textLength="600" class="foreground">&#128994; &#9898; declaration via tuple deconstruction: broken until cps macro is typed</text></g><g id="g13"><text x="0" textLength="208" class="foreground">&#128994; simple block with break</text></g><g id="g14"><text x="0" textLength="232" class="foreground">&#128994; block with yield and break</text></g><g id="g15"><text x="0" textLength="8" class="background"> </text></g><g id="g16"><text x="0" textLength="104" class="foreground">&#128994; semaphores</text></g><g id="g17"><text x="0" textLength="272" class="foreground">&#128994; break statements without cps &#129396;</text></g><g id="g18"><text x="0" textLength="208" class="foreground">&#128994; a fairly tame cps break</text></g><g id="g19"><text x="0" textLength="296" class="foreground">&#128994; break in a nested else (don't ask)</text></g><g id="g20"><text x="0" textLength="120" class="foreground">&#128994; named breaks</text></g><g id="g21"><text x="0" textLength="144" class="foreground">&#128994; while statement</text></g><g id="g22"><text x="0" textLength="152" class="foreground">&#128994; while with break</text></g><g id="g23"><text x="0" textLength="176" class="foreground">&#128994; while with continue</text></g><g id="g24"><text x="0" textLength="232" class="foreground">&#128994; simple name shadowing test</text></g><g id="g25"><text x="0" textLength="256" class="foreground">&#128994; for loop with continue, break</text></g><g id="g26"><text x="0" textLength="248" class="foreground">&#128994; &#9898; fork: fork() not declared</text></g><g id="g27"><text x="0" textLength="48" class="foreground">tick 9</text></g><g id="g28"><text x="0" textLength="48" class="foreground">tick 8</text></g><g id="g29"><text x="0" textLength="48" class="foreground">tock 9</text></g><g id="g30"><text x="0" textLength="48" class="foreground">tick 7</text></g><g id="g31"><text x="0" textLength="48" class="foreground">tick 6</text></g><g id="g32"><text x="0" textLength="48" class="foreground">tock 8</text></g><g id="g33"><text x="0" textLength="48" class="foreground">tick 5</text></g><g id="g34"><text x="0" textLength="48" class="foreground">tick 4</text></g><g id="g35"><text x="0" textLength="48" class="foreground">tock 7</text></g><g id="g36"><text x="0" textLength="48" class="foreground">tick 3</text></g><g id="g37"><text x="0" textLength="48" class="foreground">tick 2</text></g><g id="g38"><text x="0" textLength="48" class="foreground">tick 1</text></g><g id="g39"><text x="0" textLength="48" class="foreground">tock 6</text></g><g id="g40"><text x="0" textLength="48" class="foreground">tick 0</text></g><g id="g41"><text x="0" textLength="48" class="foreground">tock 5</text></g><g id="g42"><text x="0" textLength="48" class="foreground">tock 4</text></g><g id="g43"><text x="0" textLength="48" class="foreground">tock 3</text></g><g id="g44"><text x="0" textLength="48" class="foreground">tock 2</text></g><g id="g45"><text x="0" textLength="48" class="foreground">tock 1</text></g><g id="g46"><text x="0" textLength="48" class="foreground">tock 0</text></g><g id="g47"><text x="0" textLength="184" class="foreground">&#128994; the famous tock test</text></g><g id="g48"><text x="0" textLength="552" class="foreground">&#128994; &#9898; shadow mission impossible: will not work until new scopes go in</text></g><g id="g49"><text x="0" textLength="448" class="foreground">&#128994; &#9898; the sluggish yield test: too slow for release mode</text></g><g id="g50"><text x="0" textLength="120" class="foreground">listening fd: 7</text></g><g id="g51"><text x="0" textLength="320" class="foreground">tick. clients: 100 echoed 78600 messages</text></g><g id="g52"><text x="0" textLength="328" class="foreground">tick. clients: 100 echoed 158072 messages</text></g><g id="g53"><text x="0" textLength="312" class="foreground">tick. clients: 0 echoed 200000 messages</text></g><g id="g54"><text x="0" textLength="176" class="foreground">&#128994; zevv's echo service</text></g></defs><g id="screen_view"><g><use xlink:href="#g1" y="0"/><use xlink:href="#g2" y="17"/><use xlink:href="#g3" y="34"/><use xlink:href="#g4" y="51"/><use xlink:href="#g5" y="68"/><use xlink:href="#g6" y="85"/><use xlink:href="#g7" y="102"/><use xlink:href="#g8" y="119"/><use xlink:href="#g9" y="136"/><use xlink:href="#g10" y="153"/><use xlink:href="#g11" y="170"/><use xlink:href="#g12" y="187"/><use xlink:href="#g13" y="204"/><use xlink:href="#g14" y="221"/><rect x="0" y="238" width="8" height="17" class="foreground"/><use xlink:href="#g15" y="238"/></g><g><use xlink:href="#g1" y="1054"/><use xlink:href="#g2" y="1071"/><use xlink:href="#g3" y="1088"/><use xlink:href="#g4" y="1105"/><use xlink:href="#g5" y="1122"/><use xlink:href="#g6" y="1139"/><use xlink:href="#g7" y="1156"/><use xlink:href="#g8" y="1173"/><use xlink:href="#g9" y="1190"/><use xlink:href="#g10" y="1207"/><use xlink:href="#g11" y="1224"/><use xlink:href="#g12" y="1241"/><use xlink:href="#g13" y="1258"/><use xlink:href="#g14" y="1275"/><use xlink:href="#g16" y="1292"/><use xlink:href="#g17" y="1309"/><rect x="0" y="1326" width="8" height="17" class="foreground"/><use xlink:href="#g15" y="1326"/></g><g><use xlink:href="#g1" y="2108"/><use xlink:href="#g2" y="2125"/><use xlink:href="#g3" y="2142"/><use xlink:href="#g4" y="2159"/><use xlink:href="#g5" y="2176"/><use xlink:href="#g6" y="2193"/><use xlink:href="#g7" y="2210"/><use xlink:href="#g8" y="2227"/><use xlink:href="#g9" y="2244"/><use xlink:href="#g10" y="2261"/><use xlink:href="#g11" y="2278"/><use xlink:href="#g12" y="2295"/><use xlink:href="#g13" y="2312"/><use xlink:href="#g14" y="2329"/><use xlink:href="#g16" y="2346"/><use xlink:href="#g17" y="2363"/><use xlink:href="#g18" y="2380"/><use xlink:href="#g19" y="2397"/><use xlink:href="#g20" y="2414"/><use xlink:href="#g21" y="2431"/><use xlink:href="#g22" y="2448"/><use xlink:href="#g23" y="2465"/><use xlink:href="#g24" y="2482"/><use xlink:href="#g25" y="2499"/><use xlink:href="#g26" y="2516"/><use xlink:href="#g27" y="2533"/><rect x="0" y="2550" width="8" height="17" class="foreground"/><use xlink:href="#g15" y="2550"/></g><g><use xlink:href="#g1" y="3162"/><use xlink:href="#g2" y="3179"/><use xlink:href="#g3" y="3196"/><use xlink:href="#g4" y="3213"/><use xlink:href="#g5" y="3230"/><use xlink:href="#g6" y="3247"/><use xlink:href="#g7" y="3264"/><use xlink:href="#g8" y="3281"/><use xlink:href="#g9" y="3298"/><use xlink:href="#g10" y="3315"/><use xlink:href="#g11" y="3332"/><use xlink:href="#g12" y="3349"/><use xlink:href="#g13" y="3366"/><use xlink:href="#g14" y="3383"/><use xlink:href="#g16" y="3400"/><use xlink:href="#g17" y="3417"/><use xlink:href="#g18" y="3434"/><use xlink:href="#g19" y="3451"/><use xlink:href="#g20" y="3468"/><use xlink:href="#g21" y="3485"/><use xlink:href="#g22" y="3502"/><use xlink:href="#g23" y="3519"/><use xlink:href="#g24" y="3536"/><use xlink:href="#g25" y="3553"/><use xlink:href="#g26" y="3570"/><use xlink:href="#g27" y="3587"/><use xlink:href="#g28" y="3604"/><use xlink:href="#g29" y="3621"/><rect x="0" y="3638" width="8" height="17" class="foreground"/><use xlink:href="#g15" y="3638"/></g><g><use xlink:href="#g1" y="4216"/><use xlink:href="#g2" y="4233"/><use xlink:href="#g3" y="4250"/><use xlink:href="#g4" y="4267"/><use xlink:href="#g5" y="4284"/><use xlink:href="#g6" y="4301"/><use xlink:href="#g7" y="4318"/><use xlink:href="#g8" y="4335"/><use xlink:href="#g9" y="4352"/><use xlink:href="#g10" y="4369"/><use xlink:href="#g11" y="4386"/><use xlink:href="#g12" y="4403"/><use xlink:href="#g13" y="4420"/><use xlink:href="#g14" y="4437"/><use xlink:href="#g16" y="4454"/><use xlink:href="#g17" y="4471"/><use xlink:href="#g18" y="4488"/><use xlink:href="#g19" y="4505"/><use xlink:href="#g20" y="4522"/><use xlink:href="#g21" y="4539"/><use xlink:href="#g22" y="4556"/><use xlink:href="#g23" y="4573"/><use xlink:href="#g24" y="4590"/><use xlink:href="#g25" y="4607"/><use xlink:href="#g26" y="4624"/><use xlink:href="#g27" y="4641"/><use xlink:href="#g28" y="4658"/><use xlink:href="#g29" y="4675"/><use xlink:href="#g30" y="4692"/><rect x="0" y="4709" width="8" height="17" class="foreground"/><use xlink:href="#g15" y="4709"/></g><g><use xlink:href="#g1" y="5270"/><use xlink:href="#g2" y="5287"/><use xlink:href="#g3" y="5304"/><use xlink:href="#g4" y="5321"/><use xlink:href="#g5" y="5338"/><use xlink:href="#g6" y="5355"/><use xlink:href="#g7" y="5372"/><use xlink:href="#g8" y="5389"/><use xlink:href="#g9" y="5406"/><use xlink:href="#g10" y="5423"/><use xlink:href="#g11" y="5440"/><use xlink:href="#g12" y="5457"/><use xlink:href="#g13" y="5474"/><use xlink:href="#g14" y="5491"/><use xlink:href="#g16" y="5508"/><use xlink:href="#g17" y="5525"/><use xlink:href="#g18" y="5542"/><use xlink:href="#g19" y="5559"/><use xlink:href="#g20" y="5576"/><use xlink:href="#g21" y="5593"/><use xlink:href="#g22" y="5610"/><use xlink:href="#g23" y="5627"/><use xlink:href="#g24" y="5644"/><use xlink:href="#g25" y="5661"/><use xlink:href="#g26" y="5678"/><use xlink:href="#g27" y="5695"/><use xlink:href="#g28" y="5712"/><use xlink:href="#g29" y="5729"/><use xlink:href="#g30" y="5746"/><use xlink:href="#g31" y="5763"/><use xlink:href="#g32" y="5780"/><rect x="0" y="5797" width="8" height="17" class="foreground"/><use xlink:href="#g15" y="5797"/></g><g><use xlink:href="#g1" y="6324"/><use xlink:href="#g2" y="6341"/><use xlink:href="#g3" y="6358"/><use xlink:href="#g4" y="6375"/><use xlink:href="#g5" y="6392"/><use xlink:href="#g6" y="6409"/><use xlink:href="#g7" y="6426"/><use xlink:href="#g8" y="6443"/><use xlink:href="#g9" y="6460"/><use xlink:href="#g10" y="6477"/><use xlink:href="#g11" y="6494"/><use xlink:href="#g12" y="6511"/><use xlink:href="#g13" y="6528"/><use xlink:href="#g14" y="6545"/><use xlink:href="#g16" y="6562"/><use xlink:href="#g17" y="6579"/><use xlink:href="#g18" y="6596"/><use xlink:href="#g19" y="6613"/><use xlink:href="#g20" y="6630"/><use xlink:href="#g21" y="6647"/><use xlink:href="#g22" y="6664"/><use xlink:href="#g23" y="6681"/><use xlink:href="#g24" y="6698"/><use xlink:href="#g25" y="6715"/><use xlink:href="#g26" y="6732"/><use xlink:href="#g27" y="6749"/><use xlink:href="#g28" y="6766"/><use xlink:href="#g29" y="6783"/><use xlink:href="#g30" y="6800"/><use xlink:href="#g31" y="6817"/><use xlink:href="#g32" y="6834"/><use xlink:href="#g33" y="6851"/><rect x="0" y="6868" width="8" height="17" class="foreground"/><use xlink:href="#g15" y="6868"/></g><g><use xlink:href="#g1" y="7378"/><use xlink:href="#g2" y="7395"/><use xlink:href="#g3" y="7412"/><use xlink:href="#g4" y="7429"/><use xlink:href="#g5" y="7446"/><use xlink:href="#g6" y="7463"/><use xlink:href="#g7" y="7480"/><use xlink:href="#g8" y="7497"/><use xlink:href="#g9" y="7514"/><use xlink:href="#g10" y="7531"/><use xlink:href="#g11" y="7548"/><use xlink:href="#g12" y="7565"/><use xlink:href="#g13" y="7582"/><use xlink:href="#g14" y="7599"/><use xlink:href="#g16" y="7616"/><use xlink:href="#g17" y="7633"/><use xlink:href="#g18" y="7650"/><use xlink:href="#g19" y="7667"/><use xlink:href="#g20" y="7684"/><use xlink:href="#g21" y="7701"/><use xlink:href="#g22" y="7718"/><use xlink:href="#g23" y="7735"/><use xlink:href="#g24" y="7752"/><use xlink:href="#g25" y="7769"/><use xlink:href="#g26" y="7786"/><use xlink:href="#g27" y="7803"/><use xlink:href="#g28" y="7820"/><use xlink:href="#g29" y="7837"/><use xlink:href="#g30" y="7854"/><use xlink:href="#g31" y="7871"/><use xlink:href="#g32" y="7888"/><use xlink:href="#g33" y="7905"/><use xlink:href="#g34" y="7922"/><rect x="0" y="7939" width="8" height="17" class="foreground"/><use xlink:href="#g15" y="7939"/></g><g><use xlink:href="#g1" y="8432"/><use xlink:href="#g2" y="8449"/><use xlink:href="#g3" y="8466"/><use xlink:href="#g4" y="8483"/><use xlink:href="#g5" y="8500"/><use xlink:href="#g6" y="8517"/><use xlink:href="#g7" y="8534"/><use xlink:href="#g8" y="8551"/><use xlink:href="#g9" y="8568"/><use xlink:href="#g10" y="8585"/><use xlink:href="#g11" y="8602"/><use xlink:href="#g12" y="8619"/><use xlink:href="#g13" y="8636"/><use xlink:href="#g14" y="8653"/><use xlink:href="#g16" y="8670"/><use xlink:href="#g17" y="8687"/><use xlink:href="#g18" y="8704"/><use xlink:href="#g19" y="8721"/><use xlink:href="#g20" y="8738"/><use xlink:href="#g21" y="8755"/><use xlink:href="#g22" y="8772"/><use xlink:href="#g23" y="8789"/><use xlink:href="#g24" y="8806"/><use xlink:href="#g25" y="8823"/><use xlink:href="#g26" y="8840"/><use xlink:href="#g27" y="8857"/><use xlink:href="#g28" y="8874"/><use xlink:href="#g29" y="8891"/><use xlink:href="#g30" y="8908"/><use xlink:href="#g31" y="8925"/><use xlink:href="#g32" y="8942"/><use xlink:href="#g33" y="8959"/><use xlink:href="#g34" y="8976"/><use xlink:href="#g35" y="8993"/><use xlink:href="#g36" y="9010"/><rect x="0" y="9027" width="8" height="17" class="foreground"/><use xlink:href="#g15" y="9027"/></g><g><use xlink:href="#g1" y="9486"/><use xlink:href="#g2" y="9503"/><use xlink:href="#g3" y="9520"/><use xlink:href="#g4" y="9537"/><use xlink:href="#g5" y="9554"/><use xlink:href="#g6" y="9571"/><use xlink:href="#g7" y="9588"/><use xlink:href="#g8" y="9605"/><use xlink:href="#g9" y="9622"/><use xlink:href="#g10" y="9639"/><use xlink:href="#g11" y="9656"/><use xlink:href="#g12" y="9673"/><use xlink:href="#g13" y="9690"/><use xlink:href="#g14" y="9707"/><use xlink:href="#g16" y="9724"/><use xlink:href="#g17" y="9741"/><use xlink:href="#g18" y="9758"/><use xlink:href="#g19" y="9775"/><use xlink:href="#g20" y="9792"/><use xlink:href="#g21" y="9809"/><use xlink:href="#g22" y="9826"/><use xlink:href="#g23" y="9843"/><use xlink:href="#g24" y="9860"/><use xlink:href="#g25" y="9877"/><use xlink:href="#g26" y="9894"/><use xlink:href="#g27" y="9911"/><use xlink:href="#g28" y="9928"/><use xlink:href="#g29" y="9945"/><use xlink:href="#g30" y="9962"/><use xlink:href="#g31" y="9979"/><use xlink:href="#g32" y="9996"/><use xlink:href="#g33" y="10013"/><use xlink:href="#g34" y="10030"/><use xlink:href="#g35" y="10047"/><use xlink:href="#g36" y="10064"/><use xlink:href="#g37" y="10081"/><rect x="0" y="10098" width="8" height="17" class="foreground"/><use xlink:href="#g15" y="10098"/></g><g><use xlink:href="#g1" y="10540"/><use xlink:href="#g2" y="10557"/><use xlink:href="#g3" y="10574"/><use xlink:href="#g4" y="10591"/><use xlink:href="#g5" y="10608"/><use xlink:href="#g6" y="10625"/><use xlink:href="#g7" y="10642"/><use xlink:href="#g8" y="10659"/><use xlink:href="#g9" y="10676"/><use xlink:href="#g10" y="10693"/><use xlink:href="#g11" y="10710"/><use xlink:href="#g12" y="10727"/><use xlink:href="#g13" y="10744"/><use xlink:href="#g14" y="10761"/><use xlink:href="#g16" y="10778"/><use xlink:href="#g17" y="10795"/><use xlink:href="#g18" y="10812"/><use xlink:href="#g19" y="10829"/><use xlink:href="#g20" y="10846"/><use xlink:href="#g21" y="10863"/><use xlink:href="#g22" y="10880"/><use xlink:href="#g23" y="10897"/><use xlink:href="#g24" y="10914"/><use xlink:href="#g25" y="10931"/><use xlink:href="#g26" y="10948"/><use xlink:href="#g27" y="10965"/><use xlink:href="#g28" y="10982"/><use xlink:href="#g29" y="10999"/><use xlink:href="#g30" y="11016"/><use xlink:href="#g31" y="11033"/><use xlink:href="#g32" y="11050"/><use xlink:href="#g33" y="11067"/><use xlink:href="#g34" y="11084"/><use xlink:href="#g35" y="11101"/><use xlink:href="#g36" y="11118"/><use xlink:href="#g37" y="11135"/><use xlink:href="#g38" y="11152"/><use xlink:href="#g39" y="11169"/><rect x="0" y="11186" width="8" height="17" class="foreground"/><use xlink:href="#g15" y="11186"/></g><g><use xlink:href="#g1" y="11594"/><use xlink:href="#g2" y="11611"/><use xlink:href="#g3" y="11628"/><use xlink:href="#g4" y="11645"/><use xlink:href="#g5" y="11662"/><use xlink:href="#g6" y="11679"/><use xlink:href="#g7" y="11696"/><use xlink:href="#g8" y="11713"/><use xlink:href="#g9" y="11730"/><use xlink:href="#g10" y="11747"/><use xlink:href="#g11" y="11764"/><use xlink:href="#g12" y="11781"/><use xlink:href="#g13" y="11798"/><use xlink:href="#g14" y="11815"/><use xlink:href="#g16" y="11832"/><use xlink:href="#g17" y="11849"/><use xlink:href="#g18" y="11866"/><use xlink:href="#g19" y="11883"/><use xlink:href="#g20" y="11900"/><use xlink:href="#g21" y="11917"/><use xlink:href="#g22" y="11934"/><use xlink:href="#g23" y="11951"/><use xlink:href="#g24" y="11968"/><use xlink:href="#g25" y="11985"/><use xlink:href="#g26" y="12002"/><use xlink:href="#g27" y="12019"/><use xlink:href="#g28" y="12036"/><use xlink:href="#g29" y="12053"/><use xlink:href="#g30" y="12070"/><use xlink:href="#g31" y="12087"/><use xlink:href="#g32" y="12104"/><use xlink:href="#g33" y="12121"/><use xlink:href="#g34" y="12138"/><use xlink:href="#g35" y="12155"/><use xlink:href="#g36" y="12172"/><use xlink:href="#g37" y="12189"/><use xlink:href="#g38" y="12206"/><use xlink:href="#g39" y="12223"/><use xlink:href="#g40" y="12240"/><rect x="0" y="12257" width="8" height="17" class="foreground"/><use xlink:href="#g15" y="12257"/></g><g><use xlink:href="#g1" y="12648"/><use xlink:href="#g2" y="12665"/><use xlink:href="#g3" y="12682"/><use xlink:href="#g4" y="12699"/><use xlink:href="#g5" y="12716"/><use xlink:href="#g6" y="12733"/><use xlink:href="#g7" y="12750"/><use xlink:href="#g8" y="12767"/><use xlink:href="#g9" y="12784"/><use xlink:href="#g10" y="12801"/><use xlink:href="#g11" y="12818"/><use xlink:href="#g12" y="12835"/><use xlink:href="#g13" y="12852"/><use xlink:href="#g14" y="12869"/><use xlink:href="#g16" y="12886"/><use xlink:href="#g17" y="12903"/><use xlink:href="#g18" y="12920"/><use xlink:href="#g19" y="12937"/><use xlink:href="#g20" y="12954"/><use xlink:href="#g21" y="12971"/><use xlink:href="#g22" y="12988"/><use xlink:href="#g23" y="13005"/><use xlink:href="#g24" y="13022"/><use xlink:href="#g25" y="13039"/><use xlink:href="#g26" y="13056"/><use xlink:href="#g27" y="13073"/><use xlink:href="#g28" y="13090"/><use xlink:href="#g29" y="13107"/><use xlink:href="#g30" y="13124"/><use xlink:href="#g31" y="13141"/><use xlink:href="#g32" y="13158"/><use xlink:href="#g33" y="13175"/><use xlink:href="#g34" y="13192"/><use xlink:href="#g35" y="13209"/><use xlink:href="#g36" y="13226"/><use xlink:href="#g37" y="13243"/><use xlink:href="#g38" y="13260"/><use xlink:href="#g39" y="13277"/><use xlink:href="#g40" y="13294"/><use xlink:href="#g41" y="13311"/><rect x="0" y="13328" width="8" height="17" class="foreground"/><use xlink:href="#g15" y="13328"/></g><g><use xlink:href="#g1" y="13702"/><use xlink:href="#g2" y="13719"/><use xlink:href="#g3" y="13736"/><use xlink:href="#g4" y="13753"/><use xlink:href="#g5" y="13770"/><use xlink:href="#g6" y="13787"/><use xlink:href="#g7" y="13804"/><use xlink:href="#g8" y="13821"/><use xlink:href="#g9" y="13838"/><use xlink:href="#g10" y="13855"/><use xlink:href="#g11" y="13872"/><use xlink:href="#g12" y="13889"/><use xlink:href="#g13" y="13906"/><use xlink:href="#g14" y="13923"/><use xlink:href="#g16" y="13940"/><use xlink:href="#g17" y="13957"/><use xlink:href="#g18" y="13974"/><use xlink:href="#g19" y="13991"/><use xlink:href="#g20" y="14008"/><use xlink:href="#g21" y="14025"/><use xlink:href="#g22" y="14042"/><use xlink:href="#g23" y="14059"/><use xlink:href="#g24" y="14076"/><use xlink:href="#g25" y="14093"/><use xlink:href="#g26" y="14110"/><use xlink:href="#g27" y="14127"/><use xlink:href="#g28" y="14144"/><use xlink:href="#g29" y="14161"/><use xlink:href="#g30" y="14178"/><use xlink:href="#g31" y="14195"/><use xlink:href="#g32" y="14212"/><use xlink:href="#g33" y="14229"/><use xlink:href="#g34" y="14246"/><use xlink:href="#g35" y="14263"/><use xlink:href="#g36" y="14280"/><use xlink:href="#g37" y="14297"/><use xlink:href="#g38" y="14314"/><use xlink:href="#g39" y="14331"/><use xlink:href="#g40" y="14348"/><use xlink:href="#g41" y="14365"/><use xlink:href="#g42" y="14382"/><rect x="0" y="14399" width="8" height="17" class="foreground"/><use xlink:href="#g15" y="14399"/></g><g><use xlink:href="#g1" y="14756"/><use xlink:href="#g2" y="14773"/><use xlink:href="#g3" y="14790"/><use xlink:href="#g4" y="14807"/><use xlink:href="#g5" y="14824"/><use xlink:href="#g6" y="14841"/><use xlink:href="#g7" y="14858"/><use xlink:href="#g8" y="14875"/><use xlink:href="#g9" y="14892"/><use xlink:href="#g10" y="14909"/><use xlink:href="#g11" y="14926"/><use xlink:href="#g12" y="14943"/><use xlink:href="#g13" y="14960"/><use xlink:href="#g14" y="14977"/><use xlink:href="#g16" y="14994"/><use xlink:href="#g17" y="15011"/><use xlink:href="#g18" y="15028"/><use xlink:href="#g19" y="15045"/><use xlink:href="#g20" y="15062"/><use xlink:href="#g21" y="15079"/><use xlink:href="#g22" y="15096"/><use xlink:href="#g23" y="15113"/><use xlink:href="#g24" y="15130"/><use xlink:href="#g25" y="15147"/><use xlink:href="#g26" y="15164"/><use xlink:href="#g27" y="15181"/><use xlink:href="#g28" y="15198"/><use xlink:href="#g29" y="15215"/><use xlink:href="#g30" y="15232"/><use xlink:href="#g31" y="15249"/><use xlink:href="#g32" y="15266"/><use xlink:href="#g33" y="15283"/><use xlink:href="#g34" y="15300"/><use xlink:href="#g35" y="15317"/><use xlink:href="#g36" y="15334"/><use xlink:href="#g37" y="15351"/><use xlink:href="#g38" y="15368"/><use xlink:href="#g39" y="15385"/><use xlink:href="#g40" y="15402"/><use xlink:href="#g41" y="15419"/><use xlink:href="#g42" y="15436"/><use xlink:href="#g43" y="15453"/><rect x="0" y="15470" width="8" height="17" class="foreground"/><use xlink:href="#g15" y="15470"/></g><g><use xlink:href="#g1" y="15810"/><use xlink:href="#g2" y="15827"/><use xlink:href="#g3" y="15844"/><use xlink:href="#g4" y="15861"/><use xlink:href="#g5" y="15878"/><use xlink:href="#g6" y="15895"/><use xlink:href="#g7" y="15912"/><use xlink:href="#g8" y="15929"/><use xlink:href="#g9" y="15946"/><use xlink:href="#g10" y="15963"/><use xlink:href="#g11" y="15980"/><use xlink:href="#g12" y="15997"/><use xlink:href="#g13" y="16014"/><use xlink:href="#g14" y="16031"/><use xlink:href="#g16" y="16048"/><use xlink:href="#g17" y="16065"/><use xlink:href="#g18" y="16082"/><use xlink:href="#g19" y="16099"/><use xlink:href="#g20" y="16116"/><use xlink:href="#g21" y="16133"/><use xlink:href="#g22" y="16150"/><use xlink:href="#g23" y="16167"/><use xlink:href="#g24" y="16184"/><use xlink:href="#g25" y="16201"/><use xlink:href="#g26" y="16218"/><use xlink:href="#g27" y="16235"/><use xlink:href="#g28" y="16252"/><use xlink:href="#g29" y="16269"/><use xlink:href="#g30" y="16286"/><use xlink:href="#g31" y="16303"/><use xlink:href="#g32" y="16320"/><use xlink:href="#g33" y="16337"/><use xlink:href="#g34" y="16354"/><use xlink:href="#g35" y="16371"/><use xlink:href="#g36" y="16388"/><use xlink:href="#g37" y="16405"/><use xlink:href="#g38" y="16422"/><use xlink:href="#g39" y="16439"/><use xlink:href="#g40" y="16456"/><use xlink:href="#g41" y="16473"/><use xlink:href="#g42" y="16490"/><use xlink:href="#g43" y="16507"/><use xlink:href="#g44" y="16524"/><rect x="0" y="16541" width="8" height="17" class="foreground"/><use xlink:href="#g15" y="16541"/></g><g><use xlink:href="#g1" y="16864"/><use xlink:href="#g2" y="16881"/><use xlink:href="#g3" y="16898"/><use xlink:href="#g4" y="16915"/><use xlink:href="#g5" y="16932"/><use xlink:href="#g6" y="16949"/><use xlink:href="#g7" y="16966"/><use xlink:href="#g8" y="16983"/><use xlink:href="#g9" y="17000"/><use xlink:href="#g10" y="17017"/><use xlink:href="#g11" y="17034"/><use xlink:href="#g12" y="17051"/><use xlink:href="#g13" y="17068"/><use xlink:href="#g14" y="17085"/><use xlink:href="#g16" y="17102"/><use xlink:href="#g17" y="17119"/><use xlink:href="#g18" y="17136"/><use xlink:href="#g19" y="17153"/><use xlink:href="#g20" y="17170"/><use xlink:href="#g21" y="17187"/><use xlink:href="#g22" y="17204"/><use xlink:href="#g23" y="17221"/><use xlink:href="#g24" y="17238"/><use xlink:href="#g25" y="17255"/><use xlink:href="#g26" y="17272"/><use xlink:href="#g27" y="17289"/><use xlink:href="#g28" y="17306"/><use xlink:href="#g29" y="17323"/><use xlink:href="#g30" y="17340"/><use xlink:href="#g31" y="17357"/><use xlink:href="#g32" y="17374"/><use xlink:href="#g33" y="17391"/><use xlink:href="#g34" y="17408"/><use xlink:href="#g35" y="17425"/><use xlink:href="#g36" y="17442"/><use xlink:href="#g37" y="17459"/><use xlink:href="#g38" y="17476"/><use xlink:href="#g39" y="17493"/><use xlink:href="#g40" y="17510"/><use xlink:href="#g41" y="17527"/><use xlink:href="#g42" y="17544"/><use xlink:href="#g43" y="17561"/><use xlink:href="#g44" y="17578"/><use xlink:href="#g45" y="17595"/><rect x="0" y="17612" width="8" height="17" class="foreground"/><use xlink:href="#g15" y="17612"/></g><g><use xlink:href="#g1" y="17918"/><use xlink:href="#g2" y="17935"/><use xlink:href="#g3" y="17952"/><use xlink:href="#g4" y="17969"/><use xlink:href="#g5" y="17986"/><use xlink:href="#g6" y="18003"/><use xlink:href="#g7" y="18020"/><use xlink:href="#g8" y="18037"/><use xlink:href="#g9" y="18054"/><use xlink:href="#g10" y="18071"/><use xlink:href="#g11" y="18088"/><use xlink:href="#g12" y="18105"/><use xlink:href="#g13" y="18122"/><use xlink:href="#g14" y="18139"/><use xlink:href="#g16" y="18156"/><use xlink:href="#g17" y="18173"/><use xlink:href="#g18" y="18190"/><use xlink:href="#g19" y="18207"/><use xlink:href="#g20" y="18224"/><use xlink:href="#g21" y="18241"/><use xlink:href="#g22" y="18258"/><use xlink:href="#g23" y="18275"/><use xlink:href="#g24" y="18292"/><use xlink:href="#g25" y="18309"/><use xlink:href="#g26" y="18326"/><use xlink:href="#g27" y="18343"/><use xlink:href="#g28" y="18360"/><use xlink:href="#g29" y="18377"/><use xlink:href="#g30" y="18394"/><use xlink:href="#g31" y="18411"/><use xlink:href="#g32" y="18428"/><use xlink:href="#g33" y="18445"/><use xlink:href="#g34" y="18462"/><use xlink:href="#g35" y="18479"/><use xlink:href="#g36" y="18496"/><use xlink:href="#g37" y="18513"/><use xlink:href="#g38" y="18530"/><use xlink:href="#g39" y="18547"/><use xlink:href="#g40" y="18564"/><use xlink:href="#g41" y="18581"/><use xlink:href="#g42" y="18598"/><use xlink:href="#g43" y="18615"/><use xlink:href="#g44" y="18632"/><use xlink:href="#g45" y="18649"/><use xlink:href="#g46" y="18666"/><rect x="0" y="18683" width="8" height="17" class="foreground"/><use xlink:href="#g15" y="18683"/></g><g><use xlink:href="#g1" y="18972"/><use xlink:href="#g2" y="18989"/><use xlink:href="#g3" y="19006"/><use xlink:href="#g4" y="19023"/><use xlink:href="#g5" y="19040"/><use xlink:href="#g6" y="19057"/><use xlink:href="#g7" y="19074"/><use xlink:href="#g8" y="19091"/><use xlink:href="#g9" y="19108"/><use xlink:href="#g10" y="19125"/><use xlink:href="#g11" y="19142"/><use xlink:href="#g12" y="19159"/><use xlink:href="#g13" y="19176"/><use xlink:href="#g14" y="19193"/><use xlink:href="#g16" y="19210"/><use xlink:href="#g17" y="19227"/><use xlink:href="#g18" y="19244"/><use xlink:href="#g19" y="19261"/><use xlink:href="#g20" y="19278"/><use xlink:href="#g21" y="19295"/><use xlink:href="#g22" y="19312"/><use xlink:href="#g23" y="19329"/><use xlink:href="#g24" y="19346"/><use xlink:href="#g25" y="19363"/><use xlink:href="#g26" y="19380"/><use xlink:href="#g27" y="19397"/><use xlink:href="#g28" y="19414"/><use xlink:href="#g29" y="19431"/><use xlink:href="#g30" y="19448"/><use xlink:href="#g31" y="19465"/><use xlink:href="#g32" y="19482"/><use xlink:href="#g33" y="19499"/><use xlink:href="#g34" y="19516"/><use xlink:href="#g35" y="19533"/><use xlink:href="#g36" y="19550"/><use xlink:href="#g37" y="19567"/><use xlink:href="#g38" y="19584"/><use xlink:href="#g39" y="19601"/><use xlink:href="#g40" y="19618"/><use xlink:href="#g41" y="19635"/><use xlink:href="#g42" y="19652"/><use xlink:href="#g43" y="19669"/><use xlink:href="#g44" y="19686"/><use xlink:href="#g45" y="19703"/><use xlink:href="#g46" y="19720"/><use xlink:href="#g47" y="19737"/><use xlink:href="#g48" y="19754"/><use xlink:href="#g49" y="19771"/><use xlink:href="#g50" y="19788"/><rect x="0" y="19805" width="8" height="17" class="foreground"/><use xlink:href="#g15" y="19805"/></g><g><use xlink:href="#g1" y="20026"/><use xlink:href="#g2" y="20043"/><use xlink:href="#g3" y="20060"/><use xlink:href="#g4" y="20077"/><use xlink:href="#g5" y="20094"/><use xlink:href="#g6" y="20111"/><use xlink:href="#g7" y="20128"/><use xlink:href="#g8" y="20145"/><use xlink:href="#g9" y="20162"/><use xlink:href="#g10" y="20179"/><use xlink:href="#g11" y="20196"/><use xlink:href="#g12" y="20213"/><use xlink:href="#g13" y="20230"/><use xlink:href="#g14" y="20247"/><use xlink:href="#g16" y="20264"/><use xlink:href="#g17" y="20281"/><use xlink:href="#g18" y="20298"/><use xlink:href="#g19" y="20315"/><use xlink:href="#g20" y="20332"/><use xlink:href="#g21" y="20349"/><use xlink:href="#g22" y="20366"/><use xlink:href="#g23" y="20383"/><use xlink:href="#g24" y="20400"/><use xlink:href="#g25" y="20417"/><use xlink:href="#g26" y="20434"/><use xlink:href="#g27" y="20451"/><use xlink:href="#g28" y="20468"/><use xlink:href="#g29" y="20485"/><use xlink:href="#g30" y="20502"/><use xlink:href="#g31" y="20519"/><use xlink:href="#g32" y="20536"/><use xlink:href="#g33" y="20553"/><use xlink:href="#g34" y="20570"/><use xlink:href="#g35" y="20587"/><use xlink:href="#g36" y="20604"/><use xlink:href="#g37" y="20621"/><use xlink:href="#g38" y="20638"/><use xlink:href="#g39" y="20655"/><use xlink:href="#g40" y="20672"/><use xlink:href="#g41" y="20689"/><use xlink:href="#g42" y="20706"/><use xlink:href="#g43" y="20723"/><use xlink:href="#g44" y="20740"/><use xlink:href="#g45" y="20757"/><use xlink:href="#g46" y="20774"/><use xlink:href="#g47" y="20791"/><use xlink:href="#g48" y="20808"/><use xlink:href="#g49" y="20825"/><use xlink:href="#g50" y="20842"/><use xlink:href="#g51" y="20859"/><rect x="0" y="20876" width="8" height="17" class="foreground"/><use xlink:href="#g15" y="20876"/></g><g><use xlink:href="#g1" y="21080"/><use xlink:href="#g2" y="21097"/><use xlink:href="#g3" y="21114"/><use xlink:href="#g4" y="21131"/><use xlink:href="#g5" y="21148"/><use xlink:href="#g6" y="21165"/><use xlink:href="#g7" y="21182"/><use xlink:href="#g8" y="21199"/><use xlink:href="#g9" y="21216"/><use xlink:href="#g10" y="21233"/><use xlink:href="#g11" y="21250"/><use xlink:href="#g12" y="21267"/><use xlink:href="#g13" y="21284"/><use xlink:href="#g14" y="21301"/><use xlink:href="#g16" y="21318"/><use xlink:href="#g17" y="21335"/><use xlink:href="#g18" y="21352"/><use xlink:href="#g19" y="21369"/><use xlink:href="#g20" y="21386"/><use xlink:href="#g21" y="21403"/><use xlink:href="#g22" y="21420"/><use xlink:href="#g23" y="21437"/><use xlink:href="#g24" y="21454"/><use xlink:href="#g25" y="21471"/><use xlink:href="#g26" y="21488"/><use xlink:href="#g27" y="21505"/><use xlink:href="#g28" y="21522"/><use xlink:href="#g29" y="21539"/><use xlink:href="#g30" y="21556"/><use xlink:href="#g31" y="21573"/><use xlink:href="#g32" y="21590"/><use xlink:href="#g33" y="21607"/><use xlink:href="#g34" y="21624"/><use xlink:href="#g35" y="21641"/><use xlink:href="#g36" y="21658"/><use xlink:href="#g37" y="21675"/><use xlink:href="#g38" y="21692"/><use xlink:href="#g39" y="21709"/><use xlink:href="#g40" y="21726"/><use xlink:href="#g41" y="21743"/><use xlink:href="#g42" y="21760"/><use xlink:href="#g43" y="21777"/><use xlink:href="#g44" y="21794"/><use xlink:href="#g45" y="21811"/><use xlink:href="#g46" y="21828"/><use xlink:href="#g47" y="21845"/><use xlink:href="#g48" y="21862"/><use xlink:href="#g49" y="21879"/><use xlink:href="#g50" y="21896"/><use xlink:href="#g51" y="21913"/><use xlink:href="#g52" y="21930"/><rect x="0" y="21947" width="8" height="17" class="foreground"/><use xlink:href="#g15" y="21947"/></g><g><use xlink:href="#g1" y="22134"/><use xlink:href="#g2" y="22151"/><use xlink:href="#g3" y="22168"/><use xlink:href="#g4" y="22185"/><use xlink:href="#g5" y="22202"/><use xlink:href="#g6" y="22219"/><use xlink:href="#g7" y="22236"/><use xlink:href="#g8" y="22253"/><use xlink:href="#g9" y="22270"/><use xlink:href="#g10" y="22287"/><use xlink:href="#g11" y="22304"/><use xlink:href="#g12" y="22321"/><use xlink:href="#g13" y="22338"/><use xlink:href="#g14" y="22355"/><use xlink:href="#g16" y="22372"/><use xlink:href="#g17" y="22389"/><use xlink:href="#g18" y="22406"/><use xlink:href="#g19" y="22423"/><use xlink:href="#g20" y="22440"/><use xlink:href="#g21" y="22457"/><use xlink:href="#g22" y="22474"/><use xlink:href="#g23" y="22491"/><use xlink:href="#g24" y="22508"/><use xlink:href="#g25" y="22525"/><use xlink:href="#g26" y="22542"/><use xlink:href="#g27" y="22559"/><use xlink:href="#g28" y="22576"/><use xlink:href="#g29" y="22593"/><use xlink:href="#g30" y="22610"/><use xlink:href="#g31" y="22627"/><use xlink:href="#g32" y="22644"/><use xlink:href="#g33" y="22661"/><use xlink:href="#g34" y="22678"/><use xlink:href="#g35" y="22695"/><use xlink:href="#g36" y="22712"/><use xlink:href="#g37" y="22729"/><use xlink:href="#g38" y="22746"/><use xlink:href="#g39" y="22763"/><use xlink:href="#g40" y="22780"/><use xlink:href="#g41" y="22797"/><use xlink:href="#g42" y="22814"/><use xlink:href="#g43" y="22831"/><use xlink:href="#g44" y="22848"/><use xlink:href="#g45" y="22865"/><use xlink:href="#g46" y="22882"/><use xlink:href="#g47" y="22899"/><use xlink:href="#g48" y="22916"/><use xlink:href="#g49" y="22933"/><use xlink:href="#g50" y="22950"/><use xlink:href="#g51" y="22967"/><use xlink:href="#g52" y="22984"/><use xlink:href="#g53" y="23001"/><use xlink:href="#g54" y="23018"/><rect x="0" y="23035" width="8" height="17" class="foreground"/><use xlink:href="#g15" y="23035"/></g></g></svg>
</svg>