<svg xmlns="http://www.w3.org/2000/svg" xmlns:xlink="http://www.w3.org/1999/xlink" id="terminal" baseProfile="full" viewBox="0 0 687 761" width="687" version="1.1">
    <defs>
        <termtosvg:template_settings xmlns:termtosvg="https://github.com/nbedos/termtosvg">
            <termtosvg:screen_geometry columns="80" rows="40"/>
            <termtosvg:animation type="css"/>
        </termtosvg:template_settings>
        <style type="text/css" id="generated-style"><![CDATA[#screen {
                font-family: 'DejaVu Sans Mono', monospace;
                font-style: normal;
                font-size: 14px;
            }

        text {
            dominant-baseline: text-before-edge;
            white-space: pre;
        }
    
            :root {
                --animation-duration: 10084ms;
            }

            @keyframes roll {
                0.000%{transform:translateY(0px)}
0.099%{transform:translateY(-714px)}
0.139%{transform:translateY(-1428px)}
0.169%{transform:translateY(-2142px)}
0.208%{transform:translateY(-2856px)}
0.238%{transform:translateY(-3570px)}
0.268%{transform:translateY(-4284px)}
0.298%{transform:translateY(-4998px)}
0.327%{transform:translateY(-5712px)}
0.357%{transform:translateY(-6426px)}
0.397%{transform:translateY(-7140px)}
0.426%{transform:translateY(-7854px)}
0.466%{transform:translateY(-8568px)}
0.516%{transform:translateY(-9282px)}
0.585%{transform:translateY(-9996px)}
0.655%{transform:translateY(-10710px)}
0.724%{transform:translateY(-11424px)}
0.803%{transform:translateY(-12138px)}
0.833%{transform:translateY(-12852px)}
100.000%{transform:translateY(-12852px)}
            }

            #screen_view {
                animation-duration: 10084ms;
                animation-iteration-count:infinite;
                animation-name:roll;
                animation-timing-function: steps(1,end);
                animation-fill-mode: forwards;
            }
        ]]></style>
        <style type="text/css" id="user-style">
            /* The colors defined below are the default 16 colors used for rendering text of the terminal. Adjust
               them as needed.
               PowerShell colors based on https://en.wikipedia.org/wiki/ANSI_escape_code#Colors */
            .foreground {fill: #cccccc;}
            .background {fill: #0c0c0c;}
            .color0 {fill: #0c0c0c;}
            .color1 {fill: #c50f1f;}
            .color2 {fill: #13a10e;}
            .color3 {fill: #c19c00;}
            .color4 {fill: #0037da;}
            .color5 {fill: #881798;}
            .color6 {fill: #3a96dd;}
            .color7 {fill: #cccccc;}
            .color8 {fill: #767676;}
            .color9 {fill: #e74856;}
            .color10 {fill: #16c60c;}
            .color11 {fill: #f9f1a5;}
            .color12 {fill: #3b78ff;}
            .color13 {fill: #b4009e;}
            .color14 {fill: #61d6d6;}
            .color15 {fill: #f2f2f2;}
        </style>
    </defs>
    <rect id="terminalui" class="background" width="100%" height="100%" ry="4.5826941"/>
    <circle cx="24" cy="23" r="7" class="color1"/>
    <circle cx="44" cy="23" r="7" class="color3"/>
    <circle cx="64" cy="23" r="7" class="color2"/>
    <svg id="screen" width="640" height="680" x="23" y="50" viewBox="0 0 640 680" preserveAspectRatio="xMidYMin slice"><rect class="background" height="100%" width="100%" x="0" y="0"/><defs><g id="g1"><text x="0" textLength="96" class="foreground">&#128994; var r = 0</text></g><g id="g2"><text x="0" textLength="216" class="foreground">&#128994; proc adder(x: var int) =</text></g><g id="g3"><text x="0" textLength="80" class="foreground">&#128994;   inc x</text></g><g id="g4"><text x="0" textLength="24" class="foreground">&#128994; </text></g><g id="g5"><text x="0" textLength="104" class="foreground">&#128994; trampoline</text></g><g id="g6"><text x="0" textLength="112" class="foreground">&#128994; yield magic</text></g><g id="g7"><text x="0" textLength="104" class="foreground">&#128994; noop magic</text></g><g id="g8"><text x="0" textLength="112" class="foreground">&#128994; sleep magic</text></g><g id="g9"><text x="0" textLength="640" class="foreground">&#128994; &#9898; shadowing and proc param defaults: SkipError: broken until scopes are impr</text></g><g id="g10"><text x="0" textLength="32" class="foreground">oved</text></g><g id="g11"><text x="0" textLength="272" class="foreground">&#128994; reassignment of var proc params</text></g><g id="g12"><text x="0" textLength="256" class="foreground">&#128994; multiple variable declaration</text></g><g id="g13"><text x="0" textLength="640" class="foreground">&#128994; &#9898; declaration via tuple deconstruction: SkipError: broken until cps macro is</text></g><g id="g14"><text x="0" textLength="48" class="foreground"> typed</text></g><g id="g15"><text x="0" textLength="208" class="foreground">&#128994; simple block with break</text></g><g id="g16"><text x="0" textLength="232" class="foreground">&#128994; block with yield and break</text></g><g id="g17"><text x="0" textLength="8" class="background"> </text></g><g id="g18"><text x="0" textLength="104" class="foreground">&#128994; semaphores</text></g><g id="g19"><text x="0" textLength="272" class="foreground">&#128994; break statements without cps &#129396;</text></g><g id="g20"><text x="0" textLength="208" class="foreground">&#128994; a fairly tame cps break</text></g><g id="g21"><text x="0" textLength="296" class="foreground">&#128994; break in a nested else (don't ask)</text></g><g id="g22"><text x="0" textLength="120" class="foreground">&#128994; named breaks</text></g><g id="g23"><text x="0" textLength="144" class="foreground">&#128994; while statement</text></g><g id="g24"><text x="0" textLength="152" class="foreground">&#128994; while with break</text></g><g id="g25"><text x="0" textLength="176" class="foreground">&#128994; while with continue</text></g><g id="g26"><text x="0" textLength="232" class="foreground">&#128994; simple name shadowing test</text></g><g id="g27"><text x="0" textLength="256" class="foreground">&#128994; for loop with continue, break</text></g><g id="g28"><text x="0" textLength="336" class="foreground">&#128994; &#9898; fork: SkipError: fork() not declared</text></g><g id="g29"><text x="0" textLength="48" class="foreground">tick 9</text></g><g id="g30"><text x="0" textLength="48" class="foreground">tick 8</text></g><g id="g31"><text x="0" textLength="48" class="foreground">tock 9</text></g><g id="g32"><text x="0" textLength="48" class="foreground">tick 7</text></g><g id="g33"><text x="0" textLength="48" class="foreground">tick 6</text></g><g id="g34"><text x="0" textLength="48" class="foreground">tock 8</text></g><g id="g35"><text x="0" textLength="48" class="foreground">tick 5</text></g><g id="g36"><text x="0" textLength="48" class="foreground">tick 4</text></g><g id="g37"><text x="0" textLength="48" class="foreground">tock 7</text></g><g id="g38"><text x="0" textLength="48" class="foreground">tick 3</text></g><g id="g39"><text x="0" textLength="48" class="foreground">tick 2</text></g><g id="g40"><text x="0" textLength="48" class="foreground">tick 1</text></g><g id="g41"><text x="0" textLength="48" class="foreground">tock 6</text></g><g id="g42"><text x="0" textLength="48" class="foreground">tick 0</text></g><g id="g43"><text x="0" textLength="48" class="foreground">tock 5</text></g><g id="g44"><text x="0" textLength="48" class="foreground">tock 4</text></g><g id="g45"><text x="0" textLength="48" class="foreground">tock 3</text></g><g id="g46"><text x="0" textLength="48" class="foreground">tock 2</text></g><g id="g47"><text x="0" textLength="48" class="foreground">tock 1</text></g><g id="g48"><text x="0" textLength="48" class="foreground">tock 0</text></g><g id="g49"><text x="0" textLength="184" class="foreground">&#128994; the famous tock test</text></g><g id="g50"><text x="0" textLength="640" class="foreground">&#128994; &#9898; shadow mission impossible: SkipError: will not work until new scopes go in</text></g><g id="g51"><text x="0" textLength="536" class="foreground">&#128994; &#9898; the sluggish yield test: SkipError: too slow for release mode</text></g></defs><g id="screen_view"><g><use xlink:href="#g1" y="0"/><use xlink:href="#g2" y="17"/><use xlink:href="#g3" y="34"/><use xlink:href="#g4" y="51"/><use xlink:href="#g5" y="68"/><use xlink:href="#g6" y="85"/><use xlink:href="#g7" y="102"/><use xlink:href="#g8" y="119"/><use xlink:href="#g9" y="136"/><use xlink:href="#g10" y="153"/><use xlink:href="#g11" y="170"/><use xlink:href="#g12" y="187"/><use xlink:href="#g13" y="204"/><use xlink:href="#g14" y="221"/><use xlink:href="#g15" y="238"/><use xlink:href="#g16" y="255"/><rect x="0" y="272" width="8" height="17" class="foreground"/><use xlink:href="#g17" y="272"/></g><g><use xlink:href="#g1" y="714"/><use xlink:href="#g2" y="731"/><use xlink:href="#g3" y="748"/><use xlink:href="#g4" y="765"/><use xlink:href="#g5" y="782"/><use xlink:href="#g6" y="799"/><use xlink:href="#g7" y="816"/><use xlink:href="#g8" y="833"/><use xlink:href="#g9" y="850"/><use xlink:href="#g10" y="867"/><use xlink:href="#g11" y="884"/><use xlink:href="#g12" y="901"/><use xlink:href="#g13" y="918"/><use xlink:href="#g14" y="935"/><use xlink:href="#g15" y="952"/><use xlink:href="#g16" y="969"/><use xlink:href="#g18" y="986"/><use xlink:href="#g19" y="1003"/><rect x="0" y="1020" width="8" height="17" class="foreground"/><use xlink:href="#g17" y="1020"/></g><g><use xlink:href="#g1" y="1428"/><use xlink:href="#g2" y="1445"/><use xlink:href="#g3" y="1462"/><use xlink:href="#g4" y="1479"/><use xlink:href="#g5" y="1496"/><use xlink:href="#g6" y="1513"/><use xlink:href="#g7" y="1530"/><use xlink:href="#g8" y="1547"/><use xlink:href="#g9" y="1564"/><use xlink:href="#g10" y="1581"/><use xlink:href="#g11" y="1598"/><use xlink:href="#g12" y="1615"/><use xlink:href="#g13" y="1632"/><use xlink:href="#g14" y="1649"/><use xlink:href="#g15" y="1666"/><use xlink:href="#g16" y="1683"/><use xlink:href="#g18" y="1700"/><use xlink:href="#g19" y="1717"/><use xlink:href="#g20" y="1734"/><use xlink:href="#g21" y="1751"/><use xlink:href="#g22" y="1768"/><use xlink:href="#g23" y="1785"/><use xlink:href="#g24" y="1802"/><use xlink:href="#g25" y="1819"/><use xlink:href="#g26" y="1836"/><use xlink:href="#g27" y="1853"/><use xlink:href="#g28" y="1870"/><use xlink:href="#g29" y="1887"/><rect x="0" y="1904" width="8" height="17" class="foreground"/><use xlink:href="#g17" y="1904"/></g><g><use xlink:href="#g1" y="2142"/><use xlink:href="#g2" y="2159"/><use xlink:href="#g3" y="2176"/><use xlink:href="#g4" y="2193"/><use xlink:href="#g5" y="2210"/><use xlink:href="#g6" y="2227"/><use xlink:href="#g7" y="2244"/><use xlink:href="#g8" y="2261"/><use xlink:href="#g9" y="2278"/><use xlink:href="#g10" y="2295"/><use xlink:href="#g11" y="2312"/><use xlink:href="#g12" y="2329"/><use xlink:href="#g13" y="2346"/><use xlink:href="#g14" y="2363"/><use xlink:href="#g15" y="2380"/><use xlink:href="#g16" y="2397"/><use xlink:href="#g18" y="2414"/><use xlink:href="#g19" y="2431"/><use xlink:href="#g20" y="2448"/><use xlink:href="#g21" y="2465"/><use xlink:href="#g22" y="2482"/><use xlink:href="#g23" y="2499"/><use xlink:href="#g24" y="2516"/><use xlink:href="#g25" y="2533"/><use xlink:href="#g26" y="2550"/><use xlink:href="#g27" y="2567"/><use xlink:href="#g28" y="2584"/><use xlink:href="#g29" y="2601"/><use xlink:href="#g30" y="2618"/><rect x="0" y="2635" width="8" height="17" class="foreground"/><use xlink:href="#g17" y="2635"/></g><g><use xlink:href="#g1" y="2856"/><use xlink:href="#g2" y="2873"/><use xlink:href="#g3" y="2890"/><use xlink:href="#g4" y="2907"/><use xlink:href="#g5" y="2924"/><use xlink:href="#g6" y="2941"/><use xlink:href="#g7" y="2958"/><use xlink:href="#g8" y="2975"/><use xlink:href="#g9" y="2992"/><use xlink:href="#g10" y="3009"/><use xlink:href="#g11" y="3026"/><use xlink:href="#g12" y="3043"/><use xlink:href="#g13" y="3060"/><use xlink:href="#g14" y="3077"/><use xlink:href="#g15" y="3094"/><use xlink:href="#g16" y="3111"/><use xlink:href="#g18" y="3128"/><use xlink:href="#g19" y="3145"/><use xlink:href="#g20" y="3162"/><use xlink:href="#g21" y="3179"/><use xlink:href="#g22" y="3196"/><use xlink:href="#g23" y="3213"/><use xlink:href="#g24" y="3230"/><use xlink:href="#g25" y="3247"/><use xlink:href="#g26" y="3264"/><use xlink:href="#g27" y="3281"/><use xlink:href="#g28" y="3298"/><use xlink:href="#g29" y="3315"/><use xlink:href="#g30" y="3332"/><use xlink:href="#g31" y="3349"/><use xlink:href="#g32" y="3366"/><rect x="0" y="3383" width="8" height="17" class="foreground"/><use xlink:href="#g17" y="3383"/></g><g><use xlink:href="#g1" y="3570"/><use xlink:href="#g2" y="3587"/><use xlink:href="#g3" y="3604"/><use xlink:href="#g4" y="3621"/><use xlink:href="#g5" y="3638"/><use xlink:href="#g6" y="3655"/><use xlink:href="#g7" y="3672"/><use xlink:href="#g8" y="3689"/><use xlink:href="#g9" y="3706"/><use xlink:href="#g10" y="3723"/><use xlink:href="#g11" y="3740"/><use xlink:href="#g12" y="3757"/><use xlink:href="#g13" y="3774"/><use xlink:href="#g14" y="3791"/><use xlink:href="#g15" y="3808"/><use xlink:href="#g16" y="3825"/><use xlink:href="#g18" y="3842"/><use xlink:href="#g19" y="3859"/><use xlink:href="#g20" y="3876"/><use xlink:href="#g21" y="3893"/><use xlink:href="#g22" y="3910"/><use xlink:href="#g23" y="3927"/><use xlink:href="#g24" y="3944"/><use xlink:href="#g25" y="3961"/><use xlink:href="#g26" y="3978"/><use xlink:href="#g27" y="3995"/><use xlink:href="#g28" y="4012"/><use xlink:href="#g29" y="4029"/><use xlink:href="#g30" y="4046"/><use xlink:href="#g31" y="4063"/><use xlink:href="#g32" y="4080"/><use xlink:href="#g33" y="4097"/><rect x="0" y="4114" width="8" height="17" class="foreground"/><use xlink:href="#g17" y="4114"/></g><g><use xlink:href="#g1" y="4284"/><use xlink:href="#g2" y="4301"/><use xlink:href="#g3" y="4318"/><use xlink:href="#g4" y="4335"/><use xlink:href="#g5" y="4352"/><use xlink:href="#g6" y="4369"/><use xlink:href="#g7" y="4386"/><use xlink:href="#g8" y="4403"/><use xlink:href="#g9" y="4420"/><use xlink:href="#g10" y="4437"/><use xlink:href="#g11" y="4454"/><use xlink:href="#g12" y="4471"/><use xlink:href="#g13" y="4488"/><use xlink:href="#g14" y="4505"/><use xlink:href="#g15" y="4522"/><use xlink:href="#g16" y="4539"/><use xlink:href="#g18" y="4556"/><use xlink:href="#g19" y="4573"/><use xlink:href="#g20" y="4590"/><use xlink:href="#g21" y="4607"/><use xlink:href="#g22" y="4624"/><use xlink:href="#g23" y="4641"/><use xlink:href="#g24" y="4658"/><use xlink:href="#g25" y="4675"/><use xlink:href="#g26" y="4692"/><use xlink:href="#g27" y="4709"/><use xlink:href="#g28" y="4726"/><use xlink:href="#g29" y="4743"/><use xlink:href="#g30" y="4760"/><use xlink:href="#g31" y="4777"/><use xlink:href="#g32" y="4794"/><use xlink:href="#g33" y="4811"/><use xlink:href="#g34" y="4828"/><use xlink:href="#g35" y="4845"/><rect x="0" y="4862" width="8" height="17" class="foreground"/><use xlink:href="#g17" y="4862"/></g><g><use xlink:href="#g1" y="4998"/><use xlink:href="#g2" y="5015"/><use xlink:href="#g3" y="5032"/><use xlink:href="#g4" y="5049"/><use xlink:href="#g5" y="5066"/><use xlink:href="#g6" y="5083"/><use xlink:href="#g7" y="5100"/><use xlink:href="#g8" y="5117"/><use xlink:href="#g9" y="5134"/><use xlink:href="#g10" y="5151"/><use xlink:href="#g11" y="5168"/><use xlink:href="#g12" y="5185"/><use xlink:href="#g13" y="5202"/><use xlink:href="#g14" y="5219"/><use xlink:href="#g15" y="5236"/><use xlink:href="#g16" y="5253"/><use xlink:href="#g18" y="5270"/><use xlink:href="#g19" y="5287"/><use xlink:href="#g20" y="5304"/><use xlink:href="#g21" y="5321"/><use xlink:href="#g22" y="5338"/><use xlink:href="#g23" y="5355"/><use xlink:href="#g24" y="5372"/><use xlink:href="#g25" y="5389"/><use xlink:href="#g26" y="5406"/><use xlink:href="#g27" y="5423"/><use xlink:href="#g28" y="5440"/><use xlink:href="#g29" y="5457"/><use xlink:href="#g30" y="5474"/><use xlink:href="#g31" y="5491"/><use xlink:href="#g32" y="5508"/><use xlink:href="#g33" y="5525"/><use xlink:href="#g34" y="5542"/><use xlink:href="#g35" y="5559"/><use xlink:href="#g36" y="5576"/><rect x="0" y="5593" width="8" height="17" class="foreground"/><use xlink:href="#g17" y="5593"/></g><g><use xlink:href="#g1" y="5712"/><use xlink:href="#g2" y="5729"/><use xlink:href="#g3" y="5746"/><use xlink:href="#g4" y="5763"/><use xlink:href="#g5" y="5780"/><use xlink:href="#g6" y="5797"/><use xlink:href="#g7" y="5814"/><use xlink:href="#g8" y="5831"/><use xlink:href="#g9" y="5848"/><use xlink:href="#g10" y="5865"/><use xlink:href="#g11" y="5882"/><use xlink:href="#g12" y="5899"/><use xlink:href="#g13" y="5916"/><use xlink:href="#g14" y="5933"/><use xlink:href="#g15" y="5950"/><use xlink:href="#g16" y="5967"/><use xlink:href="#g18" y="5984"/><use xlink:href="#g19" y="6001"/><use xlink:href="#g20" y="6018"/><use xlink:href="#g21" y="6035"/><use xlink:href="#g22" y="6052"/><use xlink:href="#g23" y="6069"/><use xlink:href="#g24" y="6086"/><use xlink:href="#g25" y="6103"/><use xlink:href="#g26" y="6120"/><use xlink:href="#g27" y="6137"/><use xlink:href="#g28" y="6154"/><use xlink:href="#g29" y="6171"/><use xlink:href="#g30" y="6188"/><use xlink:href="#g31" y="6205"/><use xlink:href="#g32" y="6222"/><use xlink:href="#g33" y="6239"/><use xlink:href="#g34" y="6256"/><use xlink:href="#g35" y="6273"/><use xlink:href="#g36" y="6290"/><use xlink:href="#g37" y="6307"/><use xlink:href="#g38" y="6324"/><rect x="0" y="6341" width="8" height="17" class="foreground"/><use xlink:href="#g17" y="6341"/></g><g><use xlink:href="#g1" y="6426"/><use xlink:href="#g2" y="6443"/><use xlink:href="#g3" y="6460"/><use xlink:href="#g4" y="6477"/><use xlink:href="#g5" y="6494"/><use xlink:href="#g6" y="6511"/><use xlink:href="#g7" y="6528"/><use xlink:href="#g8" y="6545"/><use xlink:href="#g9" y="6562"/><use xlink:href="#g10" y="6579"/><use xlink:href="#g11" y="6596"/><use xlink:href="#g12" y="6613"/><use xlink:href="#g13" y="6630"/><use xlink:href="#g14" y="6647"/><use xlink:href="#g15" y="6664"/><use xlink:href="#g16" y="6681"/><use xlink:href="#g18" y="6698"/><use xlink:href="#g19" y="6715"/><use xlink:href="#g20" y="6732"/><use xlink:href="#g21" y="6749"/><use xlink:href="#g22" y="6766"/><use xlink:href="#g23" y="6783"/><use xlink:href="#g24" y="6800"/><use xlink:href="#g25" y="6817"/><use xlink:href="#g26" y="6834"/><use xlink:href="#g27" y="6851"/><use xlink:href="#g28" y="6868"/><use xlink:href="#g29" y="6885"/><use xlink:href="#g30" y="6902"/><use xlink:href="#g31" y="6919"/><use xlink:href="#g32" y="6936"/><use xlink:href="#g33" y="6953"/><use xlink:href="#g34" y="6970"/><use xlink:href="#g35" y="6987"/><use xlink:href="#g36" y="7004"/><use xlink:href="#g37" y="7021"/><use xlink:href="#g38" y="7038"/><use xlink:href="#g39" y="7055"/><rect x="0" y="7072" width="8" height="17" class="foreground"/><use xlink:href="#g17" y="7072"/></g><g><use xlink:href="#g2" y="7140"/><use xlink:href="#g3" y="7157"/><use xlink:href="#g4" y="7174"/><use xlink:href="#g5" y="7191"/><use xlink:href="#g6" y="7208"/><use xlink:href="#g7" y="7225"/><use xlink:href="#g8" y="7242"/><use xlink:href="#g9" y="7259"/><use xlink:href="#g10" y="7276"/><use xlink:href="#g11" y="7293"/><use xlink:href="#g12" y="7310"/><use xlink:href="#g13" y="7327"/><use xlink:href="#g14" y="7344"/><use xlink:href="#g15" y="7361"/><use xlink:href="#g16" y="7378"/><use xlink:href="#g18" y="7395"/><use xlink:href="#g19" y="7412"/><use xlink:href="#g20" y="7429"/><use xlink:href="#g21" y="7446"/><use xlink:href="#g22" y="7463"/><use xlink:href="#g23" y="7480"/><use xlink:href="#g24" y="7497"/><use xlink:href="#g25" y="7514"/><use xlink:href="#g26" y="7531"/><use xlink:href="#g27" y="7548"/><use xlink:href="#g28" y="7565"/><use xlink:href="#g29" y="7582"/><use xlink:href="#g30" y="7599"/><use xlink:href="#g31" y="7616"/><use xlink:href="#g32" y="7633"/><use xlink:href="#g33" y="7650"/><use xlink:href="#g34" y="7667"/><use xlink:href="#g35" y="7684"/><use xlink:href="#g36" y="7701"/><use xlink:href="#g37" y="7718"/><use xlink:href="#g38" y="7735"/><use xlink:href="#g39" y="7752"/><use xlink:href="#g40" y="7769"/><use xlink:href="#g41" y="7786"/><rect x="0" y="7803" width="8" height="17" class="foreground"/><use xlink:href="#g17" y="7803"/></g><g><use xlink:href="#g3" y="7854"/><use xlink:href="#g4" y="7871"/><use xlink:href="#g5" y="7888"/><use xlink:href="#g6" y="7905"/><use xlink:href="#g7" y="7922"/><use xlink:href="#g8" y="7939"/><use xlink:href="#g9" y="7956"/><use xlink:href="#g10" y="7973"/><use xlink:href="#g11" y="7990"/><use xlink:href="#g12" y="8007"/><use xlink:href="#g13" y="8024"/><use xlink:href="#g14" y="8041"/><use xlink:href="#g15" y="8058"/><use xlink:href="#g16" y="8075"/><use xlink:href="#g18" y="8092"/><use xlink:href="#g19" y="8109"/><use xlink:href="#g20" y="8126"/><use xlink:href="#g21" y="8143"/><use xlink:href="#g22" y="8160"/><use xlink:href="#g23" y="8177"/><use xlink:href="#g24" y="8194"/><use xlink:href="#g25" y="8211"/><use xlink:href="#g26" y="8228"/><use xlink:href="#g27" y="8245"/><use xlink:href="#g28" y="8262"/><use xlink:href="#g29" y="8279"/><use xlink:href="#g30" y="8296"/><use xlink:href="#g31" y="8313"/><use xlink:href="#g32" y="8330"/><use xlink:href="#g33" y="8347"/><use xlink:href="#g34" y="8364"/><use xlink:href="#g35" y="8381"/><use xlink:href="#g36" y="8398"/><use xlink:href="#g37" y="8415"/><use xlink:href="#g38" y="8432"/><use xlink:href="#g39" y="8449"/><use xlink:href="#g40" y="8466"/><use xlink:href="#g41" y="8483"/><use xlink:href="#g42" y="8500"/><rect x="0" y="8517" width="8" height="17" class="foreground"/><use xlink:href="#g17" y="8517"/></g><g><use xlink:href="#g4" y="8568"/><use xlink:href="#g5" y="8585"/><use xlink:href="#g6" y="8602"/><use xlink:href="#g7" y="8619"/><use xlink:href="#g8" y="8636"/><use xlink:href="#g9" y="8653"/><use xlink:href="#g10" y="8670"/><use xlink:href="#g11" y="8687"/><use xlink:href="#g12" y="8704"/><use xlink:href="#g13" y="8721"/><use xlink:href="#g14" y="8738"/><use xlink:href="#g15" y="8755"/><use xlink:href="#g16" y="8772"/><use xlink:href="#g18" y="8789"/><use xlink:href="#g19" y="8806"/><use xlink:href="#g20" y="8823"/><use xlink:href="#g21" y="8840"/><use xlink:href="#g22" y="8857"/><use xlink:href="#g23" y="8874"/><use xlink:href="#g24" y="8891"/><use xlink:href="#g25" y="8908"/><use xlink:href="#g26" y="8925"/><use xlink:href="#g27" y="8942"/><use xlink:href="#g28" y="8959"/><use xlink:href="#g29" y="8976"/><use xlink:href="#g30" y="8993"/><use xlink:href="#g31" y="9010"/><use xlink:href="#g32" y="9027"/><use xlink:href="#g33" y="9044"/><use xlink:href="#g34" y="9061"/><use xlink:href="#g35" y="9078"/><use xlink:href="#g36" y="9095"/><use xlink:href="#g37" y="9112"/><use xlink:href="#g38" y="9129"/><use xlink:href="#g39" y="9146"/><use xlink:href="#g40" y="9163"/><use xlink:href="#g41" y="9180"/><use xlink:href="#g42" y="9197"/><use xlink:href="#g43" y="9214"/><rect x="0" y="9231" width="8" height="17" class="foreground"/><use xlink:href="#g17" y="9231"/></g><g><use xlink:href="#g5" y="9282"/><use xlink:href="#g6" y="9299"/><use xlink:href="#g7" y="9316"/><use xlink:href="#g8" y="9333"/><use xlink:href="#g9" y="9350"/><use xlink:href="#g10" y="9367"/><use xlink:href="#g11" y="9384"/><use xlink:href="#g12" y="9401"/><use xlink:href="#g13" y="9418"/><use xlink:href="#g14" y="9435"/><use xlink:href="#g15" y="9452"/><use xlink:href="#g16" y="9469"/><use xlink:href="#g18" y="9486"/><use xlink:href="#g19" y="9503"/><use xlink:href="#g20" y="9520"/><use xlink:href="#g21" y="9537"/><use xlink:href="#g22" y="9554"/><use xlink:href="#g23" y="9571"/><use xlink:href="#g24" y="9588"/><use xlink:href="#g25" y="9605"/><use xlink:href="#g26" y="9622"/><use xlink:href="#g27" y="9639"/><use xlink:href="#g28" y="9656"/><use xlink:href="#g29" y="9673"/><use xlink:href="#g30" y="9690"/><use xlink:href="#g31" y="9707"/><use xlink:href="#g32" y="9724"/><use xlink:href="#g33" y="9741"/><use xlink:href="#g34" y="9758"/><use xlink:href="#g35" y="9775"/><use xlink:href="#g36" y="9792"/><use xlink:href="#g37" y="9809"/><use xlink:href="#g38" y="9826"/><use xlink:href="#g39" y="9843"/><use xlink:href="#g40" y="9860"/><use xlink:href="#g41" y="9877"/><use xlink:href="#g42" y="9894"/><use xlink:href="#g43" y="9911"/><use xlink:href="#g44" y="9928"/><rect x="0" y="9945" width="8" height="17" class="foreground"/><use xlink:href="#g17" y="9945"/></g><g><use xlink:href="#g6" y="9996"/><use xlink:href="#g7" y="10013"/><use xlink:href="#g8" y="10030"/><use xlink:href="#g9" y="10047"/><use xlink:href="#g10" y="10064"/><use xlink:href="#g11" y="10081"/><use xlink:href="#g12" y="10098"/><use xlink:href="#g13" y="10115"/><use xlink:href="#g14" y="10132"/><use xlink:href="#g15" y="10149"/><use xlink:href="#g16" y="10166"/><use xlink:href="#g18" y="10183"/><use xlink:href="#g19" y="10200"/><use xlink:href="#g20" y="10217"/><use xlink:href="#g21" y="10234"/><use xlink:href="#g22" y="10251"/><use xlink:href="#g23" y="10268"/><use xlink:href="#g24" y="10285"/><use xlink:href="#g25" y="10302"/><use xlink:href="#g26" y="10319"/><use xlink:href="#g27" y="10336"/><use xlink:href="#g28" y="10353"/><use xlink:href="#g29" y="10370"/><use xlink:href="#g30" y="10387"/><use xlink:href="#g31" y="10404"/><use xlink:href="#g32" y="10421"/><use xlink:href="#g33" y="10438"/><use xlink:href="#g34" y="10455"/><use xlink:href="#g35" y="10472"/><use xlink:href="#g36" y="10489"/><use xlink:href="#g37" y="10506"/><use xlink:href="#g38" y="10523"/><use xlink:href="#g39" y="10540"/><use xlink:href="#g40" y="10557"/><use xlink:href="#g41" y="10574"/><use xlink:href="#g42" y="10591"/><use xlink:href="#g43" y="10608"/><use xlink:href="#g44" y="10625"/><use xlink:href="#g45" y="10642"/><rect x="0" y="10659" width="8" height="17" class="foreground"/><use xlink:href="#g17" y="10659"/></g><g><use xlink:href="#g7" y="10710"/><use xlink:href="#g8" y="10727"/><use xlink:href="#g9" y="10744"/><use xlink:href="#g10" y="10761"/><use xlink:href="#g11" y="10778"/><use xlink:href="#g12" y="10795"/><use xlink:href="#g13" y="10812"/><use xlink:href="#g14" y="10829"/><use xlink:href="#g15" y="10846"/><use xlink:href="#g16" y="10863"/><use xlink:href="#g18" y="10880"/><use xlink:href="#g19" y="10897"/><use xlink:href="#g20" y="10914"/><use xlink:href="#g21" y="10931"/><use xlink:href="#g22" y="10948"/><use xlink:href="#g23" y="10965"/><use xlink:href="#g24" y="10982"/><use xlink:href="#g25" y="10999"/><use xlink:href="#g26" y="11016"/><use xlink:href="#g27" y="11033"/><use xlink:href="#g28" y="11050"/><use xlink:href="#g29" y="11067"/><use xlink:href="#g30" y="11084"/><use xlink:href="#g31" y="11101"/><use xlink:href="#g32" y="11118"/><use xlink:href="#g33" y="11135"/><use xlink:href="#g34" y="11152"/><use xlink:href="#g35" y="11169"/><use xlink:href="#g36" y="11186"/><use xlink:href="#g37" y="11203"/><use xlink:href="#g38" y="11220"/><use xlink:href="#g39" y="11237"/><use xlink:href="#g40" y="11254"/><use xlink:href="#g41" y="11271"/><use xlink:href="#g42" y="11288"/><use xlink:href="#g43" y="11305"/><use xlink:href="#g44" y="11322"/><use xlink:href="#g45" y="11339"/><use xlink:href="#g46" y="11356"/><rect x="0" y="11373" width="8" height="17" class="foreground"/><use xlink:href="#g17" y="11373"/></g><g><use xlink:href="#g8" y="11424"/><use xlink:href="#g9" y="11441"/><use xlink:href="#g10" y="11458"/><use xlink:href="#g11" y="11475"/><use xlink:href="#g12" y="11492"/><use xlink:href="#g13" y="11509"/><use xlink:href="#g14" y="11526"/><use xlink:href="#g15" y="11543"/><use xlink:href="#g16" y="11560"/><use xlink:href="#g18" y="11577"/><use xlink:href="#g19" y="11594"/><use xlink:href="#g20" y="11611"/><use xlink:href="#g21" y="11628"/><use xlink:href="#g22" y="11645"/><use xlink:href="#g23" y="11662"/><use xlink:href="#g24" y="11679"/><use xlink:href="#g25" y="11696"/><use xlink:href="#g26" y="11713"/><use xlink:href="#g27" y="11730"/><use xlink:href="#g28" y="11747"/><use xlink:href="#g29" y="11764"/><use xlink:href="#g30" y="11781"/><use xlink:href="#g31" y="11798"/><use xlink:href="#g32" y="11815"/><use xlink:href="#g33" y="11832"/><use xlink:href="#g34" y="11849"/><use xlink:href="#g35" y="11866"/><use xlink:href="#g36" y="11883"/><use xlink:href="#g37" y="11900"/><use xlink:href="#g38" y="11917"/><use xlink:href="#g39" y="11934"/><use xlink:href="#g40" y="11951"/><use xlink:href="#g41" y="11968"/><use xlink:href="#g42" y="11985"/><use xlink:href="#g43" y="12002"/><use xlink:href="#g44" y="12019"/><use xlink:href="#g45" y="12036"/><use xlink:href="#g46" y="12053"/><use xlink:href="#g47" y="12070"/><rect x="0" y="12087" width="8" height="17" class="foreground"/><use xlink:href="#g17" y="12087"/></g><g><use xlink:href="#g9" y="12138"/><use xlink:href="#g10" y="12155"/><use xlink:href="#g11" y="12172"/><use xlink:href="#g12" y="12189"/><use xlink:href="#g13" y="12206"/><use xlink:href="#g14" y="12223"/><use xlink:href="#g15" y="12240"/><use xlink:href="#g16" y="12257"/><use xlink:href="#g18" y="12274"/><use xlink:href="#g19" y="12291"/><use xlink:href="#g20" y="12308"/><use xlink:href="#g21" y="12325"/><use xlink:href="#g22" y="12342"/><use xlink:href="#g23" y="12359"/><use xlink:href="#g24" y="12376"/><use xlink:href="#g25" y="12393"/><use xlink:href="#g26" y="12410"/><use xlink:href="#g27" y="12427"/><use xlink:href="#g28" y="12444"/><use xlink:href="#g29" y="12461"/><use xlink:href="#g30" y="12478"/><use xlink:href="#g31" y="12495"/><use xlink:href="#g32" y="12512"/><use xlink:href="#g33" y="12529"/><use xlink:href="#g34" y="12546"/><use xlink:href="#g35" y="12563"/><use xlink:href="#g36" y="12580"/><use xlink:href="#g37" y="12597"/><use xlink:href="#g38" y="12614"/><use xlink:href="#g39" y="12631"/><use xlink:href="#g40" y="12648"/><use xlink:href="#g41" y="12665"/><use xlink:href="#g42" y="12682"/><use xlink:href="#g43" y="12699"/><use xlink:href="#g44" y="12716"/><use xlink:href="#g45" y="12733"/><use xlink:href="#g46" y="12750"/><use xlink:href="#g47" y="12767"/><use xlink:href="#g48" y="12784"/><rect x="0" y="12801" width="8" height="17" class="foreground"/><use xlink:href="#g17" y="12801"/></g><g><use xlink:href="#g12" y="12852"/><use xlink:href="#g13" y="12869"/><use xlink:href="#g14" y="12886"/><use xlink:href="#g15" y="12903"/><use xlink:href="#g16" y="12920"/><use xlink:href="#g18" y="12937"/><use xlink:href="#g19" y="12954"/><use xlink:href="#g20" y="12971"/><use xlink:href="#g21" y="12988"/><use xlink:href="#g22" y="13005"/><use xlink:href="#g23" y="13022"/><use xlink:href="#g24" y="13039"/><use xlink:href="#g25" y="13056"/><use xlink:href="#g26" y="13073"/><use xlink:href="#g27" y="13090"/><use xlink:href="#g28" y="13107"/><use xlink:href="#g29" y="13124"/><use xlink:href="#g30" y="13141"/><use xlink:href="#g31" y="13158"/><use xlink:href="#g32" y="13175"/><use xlink:href="#g33" y="13192"/><use xlink:href="#g34" y="13209"/><use xlink:href="#g35" y="13226"/><use xlink:href="#g36" y="13243"/><use xlink:href="#g37" y="13260"/><use xlink:href="#g38" y="13277"/><use xlink:href="#g39" y="13294"/><use xlink:href="#g40" y="13311"/><use xlink:href="#g41" y="13328"/><use xlink:href="#g42" y="13345"/><use xlink:href="#g43" y="13362"/><use xlink:href="#g44" y="13379"/><use xlink:href="#g45" y="13396"/><use xlink:href="#g46" y="13413"/><use xlink:href="#g47" y="13430"/><use xlink:href="#g48" y="13447"/><use xlink:href="#g49" y="13464"/><use xlink:href="#g50" y="13481"/><use xlink:href="#g51" y="13498"/><rect x="0" y="13515" width="8" height="17" class="foreground"/><use xlink:href="#g17" y="13515"/></g></g></svg>
</svg>